<svg fill="none" height="17" viewBox="0 0 17 17" width="17" xmlns="http://www.w3.org/2000/svg"><g fill="#fff"><path d="m11.2306 10.1004c-.2162-.2162-.5838-.2162-.8 0l-1.25406 1.2541c-.58378.5837-1.9027.1946-2.96216-.8649-1.05946-1.05946-1.44865-2.37838-.86487-2.96216l1.25406-1.25406c.21621-.21621.21621-.58378 0-.8l-2.87568-2.87567c-.21622-.21622-.58378-.21622-.8 0l-.84324.84324c-1.686489 1.68649-.56216 5.55676 2.52973 8.64865 3.09189 3.0919 6.96212 4.2378 8.64862 2.5297l.8433-.8432c.2162-.2162.2162-.5838 0-.8z"/><path d="m8.29015 1.58144c-.28108-.02162-.49729.21622-.47567.51892.02162.21622.23784.38919.45405.41081 3.19997.21622 5.75137 2.78919 5.96757 5.98919.0216.23784.2162.43244.4541.43244.2594 0 .4756-.21622.454-.4973-.2378-3.67568-3.1784-6.61622-6.85405-6.85406z"/><path d="m8.24676 4.78149c1.94594.19459 3.50274 1.75135 3.69734 3.71892.0216.23783.2162.41081.454.41081.2595 0 .4757-.23784.4541-.4973-.2379-2.4-2.1406-4.32433-4.54057-4.56216-.3027-.02163-.56216.25946-.47568.58378.04325.21622.21622.32432.41081.34595z"/></g></svg>