<svg fill="none" height="17" viewBox="0 0 17 17" width="17" xmlns="http://www.w3.org/2000/svg" xmlns:xlink="http://www.w3.org/1999/xlink"><clipPath id="a"><path d="m.225098.5h16v16h-16z"/></clipPath><g clip-path="url(#a)"><path d="m12.4438 10.875c-.7546 0-1.4408.2989-1.9465.7844l-3.00789-1.86356c.17163-.39775.26694-.83584.26694-1.29584s-.09531-.89809-.26697-1.29581l3.00792-1.86353c.5057.48547 1.1919.78434 1.9465.78434 1.5509 0 2.8125-1.26169 2.8125-2.8125s-1.2616-2.8125-2.8125-2.8125c-1.5508 0-2.81245 1.26169-2.81245 2.8125 0 .45784.11003.89047.30494 1.27287l-2.93754 1.81994c-.60237-.7245-1.51003-1.18656-2.52365-1.18656-1.80928 0-3.28125 1.47197-3.28125 3.28125 0 1.8093 1.47197 3.2812 3.28125 3.2812 1.01362 0 1.92128-.462 2.52365-1.1865l2.93754 1.8199c-.19491.3824-.30494.8151-.30494 1.2729 0 1.5508 1.26165 2.8125 2.81245 2.8125 1.5509 0 2.8125-1.2617 2.8125-2.8125s-1.2616-2.8125-2.8125-2.8125z" fill="#fff"/></g></svg>