<svg fill="none" height="25" viewBox="0 0 77 25" width="77" xmlns="http://www.w3.org/2000/svg"><path d="m33.1539 24.638c-1.8308-1.2837-4.0614-1.8519-6.0921-1.7677-2.0517.0842-2.9671 1.6098-2.9671 1.6098-.9259-1.6098-2.7462-2.5988-5.566-2.5778-4.5559.0526-9.08023 2.157-12.66813 2.157s-5.9447577-2.157-5.86058412-5.9974c.14730412-6.7234 5.82902412-12.78387 10.07981412-15.50899 2.4305-1.567731 4.4822-2.041207 5.8185-1.883382.9785.105217 2.1464 1.231042 1.4099 2.893472-1.0837 2.43051-2.5884 2.2306-2.5357 1.06269.0315-.75756.5366-1.23104.9153-1.48356.242-.16835.6629-.21044.8839-.22096.2104-.17887.3787-1.51512-1.3679-1.07321s-3.8509 2.15695-5.86054 4.36651c-2.00965 2.22008-5.13459 6.41823-5.90268 10.81633-.35774 2.0517-.11574 5.7659 4.71372 5.7238 4.1035-.0316 10.164-2.7357 15.7194-2.6831 2.157.0211 4.0404.5998 5.5029 1.5047 1.4415.8838 3.167 2.1779 3.7773 3.0618zm1.3152-12.1947h.8312s-4.2087 6.0921-6.5971 5.8185c-1.3257-.1473-.9364-1.7992-.9364-1.7992s-1.8729 2.1885-3.5774 1.7466c-1.5572-.3998-.5472-2.9882-.5472-2.9882-.1788.0737-3.5458 3.872-5.9026 2.9566-2.4726-.9469-1.189-4.1245-.7155-5.0819.3893-.8102.8417-1.5888.8417-1.5888s-.3787.1052-.6102.1578c-.2315.0631-.5998.1263-.5998.1263s-1.1679 1.9044-1.8833 2.8514c-.7155.9469-3.7563 4.2086-5.54498 3.5563-1.78869-.6524-1.34678-3.1565-.3367-5.1451 1.63088-3.23019 5.50288-7.19687 7.82818-6.60766 2.3568.59974.4103 4.42966.4103 4.42966s.463.0631 1.5888-.705c1.6203-1.10475 3.7562-4.07187 6.071-3.72466 1.0838.15783 2.0938 1.27313.7155 3.38799-.4419.68387-1.189 1.28367-1.7571.68387-.3473-.3682-.0421-1.05213.3367-1.51508.526-.66287 1.252-.56817 1.252-.56817s.3788-.87331-.5892-.86278c-.7891.02104-2.7777 1.84129-3.9035 3.70363-1.0312 1.694-2.5884 4.598-1.0206 5.2293 1.4414.5787 4.1666-2.6725 5.4397-4.3665 1.2731-1.7045 4.1561-5.566 6.5655-5.7133.8207-.05261 1.3258.70495 1.3258.70495l.2735-.44191h2.42s-4.5559 7.61776-4.9136 8.18586c-.2841.4525-.6524 1.4731.3788.9049 1.0311-.5682 3.1775-3.3249 3.1775-3.3249m-18.7707-.7786s-.6418-.1894-1.2416-.5681c-.5892-.3788-.8627-.947-.8943-.9891-.021-.0421-.0421 0-.0736.0211-.0211.0315-.1474.1999-1.0101 1.4625-.8628 1.2626-2.1359 3.8614-.947 4.3034.7681.284 2.0623-1.0627 2.7567-1.9571.6418-.8312 1.4099-2.0938 1.4415-2.1675.0315-.0841 0-.0946-.0421-.1157m.968-4.04033c-.6418-.48399-2.2517.64183-2.2622 1.78869-.0105 1.16794 1.4625 1.50464 1.6414 1.51514 0 0 .1683.0421.2315-.0947.0421-.0842.242-.4524.4629-1.03113.221-.58922.5051-1.72556-.0841-2.178m12.3209 6.33403c.9785-1.3362 3.6615-6.0289 3.6615-6.0289s-.0421-.32617-.3577-.34721c-.3683-.02105-.9891.11574-2.2306 1.6519-1.2311 1.54671-2.1885 2.77771-2.883 4.06141-.768 1.3994-1.1047 2.3779-.6628 2.6514.1262.0737.3156.0842.4629.0421.2841-.0736.6629-.3577 1.1785-.9574.242-.2736.5155-.6419.8312-1.0838m10.8689-7.25996h-2.3043l-1.2941 2.10434h2.2937l1.2942-2.10434zm30.1236 15.64576c-.2315 0-.4208.0842-.5892.242-.1578.1684-.242.3578-.242.5892 0 .2315.0842.4314.242.5998.1578.1578.3577.242.5892.242s.4314-.0842.5892-.242c.1684-.1684.242-.3683.242-.5998 0-.2314-.0736-.4208-.242-.5892-.1683-.1578-.3577-.242-.5892-.242zm.968.8312c0 .2736-.0947.4945-.2841.6839s-.4103.2841-.6839.2841c-.2735 0-.4945-.0947-.6839-.2841s-.2841-.4208-.2841-.6839c0-.263.0947-.4945.2946-.6734.1894-.1893.4104-.284.6839-.284.2736 0 .4946.0947.684.284.1893.1894.284.4104.284.6734m-.7154-.2104c0-.0737-.0211-.1263-.0737-.1578-.0421-.0316-.1262-.0421-.2209-.0421h-.1684v.3893h.1684c.0841 0 .1473 0 .1893-.0211.0632-.0315.1053-.0841.1053-.1683zm-.6419-.3262h.3683c.1368 0 .2315.0105.2946.0421.1052.0526.1684.1368.1684.2736 0 .0947-.0421.1683-.1053.2104-.0315.021-.0841.0421-.1578.0526.0842.0105.1473.0421.1789.1052.0421.0526.0631.1158.0631.1684v.0736.0737.0526l-.1789.0105s0-.0105 0-.021v-.1263c0-.1157-.0315-.1999-.1052-.242-.0315-.0316-.1052-.0421-.1999-.0421h-.1473v.4209h-.1894v-1.0627zm4.1666-19.71765c-1.694 1.09426-4.0508 2.0833-6.313 1.86234-.5682.58922-1.1784 1.27313-1.7992 2.02017 3.9246.76808 7.3442-1.65191 9.1749-3.72468 1.1364-1.29417 1.7045-2.441039 1.7045-2.441039s-1.0837 1.199479-2.7672 2.283209zm-6.7128 17.81325c-.3262.5156-.6944 1.5151.3788.8943 1.3047-.7575 3.167-3.5773 3.167-3.5773h.8417s-1.1047 1.7571-2.5567 3.3564c-1.3258 1.473-2.9461 2.8093-4.0825 2.6725-1.3362-.1578-.9153-1.9044-.9153-1.9044s-1.9045 2.0307-3.2197 1.8834c-1.7782-.2-1.231-2.399-1.231-2.399s-2.0097 2.4726-3.3775 2.399c-2.1464-.1263-1.6098-2.7462-1.0206-4.577.3262-.9785.6208-1.7571.6208-1.7571s-.221.0631-.6734.1262c-.242.0316-.6734.0632-.6734.0632s-.8943 1.5782-1.6098 2.5252c-.7155.9469-3.7563 4.2192-5.5449 3.5668-1.6625-.5997-1.1153-3.1354-.1474-5.1451 1.3994-2.9355 5.3556-7.1547 7.6388-6.6076 2.3569.5682.0526 4.8821.0526 4.8821s0 .0105.0211.021c.0526.0211.1683.0316.4524-.021.4524-.0842.8628-.2631.8628-.2631s2.3779-4.9767 5.0083-8.23846c2.6199-3.25121 7.8492-8.859278 9.9114-7.50198.5051.32617.2736 1.48356-.3998 2.87243-.2946.09469-.6102.17887-.9364.242.4524-.8207.7575-1.51513.8417-1.99913.3052-1.683471-3.6194 1.86234-6.4182 5.68172-2.7988 3.81942-4.4928 7.28102-4.4928 7.28102s.5682-.3262 1.452-1.0311c.9259-.7471 2.1885-1.9045 3.5669-3.3354.9259-.95748 2.0201-2.15696 3.0302-3.49321.3052-.01052.5998-.04209.8944-.0947-1.1364 1.52565-2.3253 2.92501-3.3459 3.95621-1.1153 1.1258-2.3253 2.3463-3.3775 3.2406-1.673 1.3994-2.9671 2.2096-2.9671 2.2096s-2.4621 4.9452-1.1258 5.2714c.7891.1788 2.3358-2.1991 2.3358-2.1991s2.0201-3.0933 3.2407-4.4717c1.6624-1.8939 3.0933-2.9882 4.5243-3.0092.8312-.0105 1.3257.8733 1.3257.8733l.3893-.6103h2.42s-4.5033 7.6493-4.861 8.228m-13.573-3.0092s-.5682-.2525-1.1048-.7049c-.5471-.4525-.8207-.968-.8417-1.0101-.0211-.0421-.0421-.0106-.0737.021-.0315.0316-.1262.1158-.989 1.3889-.8523 1.2626-2.178 3.872-.9785 4.3244.7575.2841 2.0412-1.0627 2.7461-1.9465.6419-.8312 1.2416-1.8834 1.2837-1.9571.0421-.0736 0-.0946-.0316-.1157m1.2205-2.1359c.221-.5787.5051-1.7256-.0947-2.1675-.6313-.484-2.2411.6419-2.2516 1.7887 0 1.1785 1.1469 1.7151 1.4204 1.7782.1578.0421.2105.0421.2841-.0842.0526-.0842.4104-.726.6418-1.3047m13.8676-1.6098c.0526-.0842.0737-.1683.0737-.1683s-.0421-.3262-.3577-.3473c-.3788-.021-.8734.0526-2.2096 1.5257-1.3363 1.473-2.1359 2.7567-2.8409 4.0298-.768 1.3994-1.0627 2.441-.6313 2.7041.1263.0736.3052.0842.463.0421.2946-.0737.6418-.3473 1.1469-.947.242-.2736.505-.6629.8206-1.1048.8733-1.1994 3.0934-4.9873 3.5353-5.7553m5.2083-11.04783c-1.694 1.09426-4.0509 2.0833-6.313 1.86234-.5682.58922-1.1785 1.27313-1.7993 2.02017 3.9246.76809 7.3442-1.65191 9.175-3.72468 1.1363-1.29417 1.7045-2.441037 1.7045-2.441037s-1.0838 1.199477-2.7672 2.283207zm-11.0057 2.84086c-1.8624-.94695-3.2091-2.11486-4.619-2.84086-1.3468-.69443-2.2201-.97852-3.3039-.83121-.1788.02104-.4524.10522-.4524.10522s.5577 1.90442-1.6624 5.12406c-2.2622 3.26176-4.3034 3.24066-4.8926 2.33582-.6103-.93643.1789-2.87242 1.4941-4.57694 1.3783-1.78869 3.7878-3.28277 3.7878-3.28277s-.7681-.46295-2.662.59974c-1.8413 1.04165-5.0294 3.53529-7.9755 7.73341-2.946 4.1982-3.5353 6.5025-3.9561 8.3227-.4314 1.8203-.0316 3.7668 1.9781 3.7668 2.0096 0 4.3665-3.0724 5.0188-4.1456 1.231-1.9991 2.0307-5.0504.3577-4.6295-.8206.1999-1.494 1.1258-1.9149 1.9991-.4314.9049-.6103 1.7676-.6103 1.7676s-.6944.2526-1.6308.947c-.9365.705-1.5467 1.3783-1.5467 1.3783s0-1.452 1.1679-3.8088c1.1574-2.3569 3.2828-3.4301 4.4822-3.5248 1.0943-.0947 2.5042.8312 1.3047 4.2297-1.1889 3.3985-4.7242 7.5336-8.4279 7.5862-3.4195.0526-5.6606-4.3244-.9048-11.9421 5.2293-8.40689 11.416-10.99523 13.4257-11.279311 2.0096-.294608 2.662.599741 2.662.599741s1.6834-.768089 3.8193-.631306c2.4516.168347 4.3455 1.904426 6.8497 3.114426-.6524.64182-1.2732 1.29417-1.8308 1.90443m-9.1328-3.30382s-1.431.5787-3.1039 2.40947c-1.673 1.8413-2.641 3.90355-1.915 4.45068.2736.21044.9049.242 2.0728-.79965.8943-.81017 1.8097-1.87286 2.441-3.38799.7471-1.82025.5051-2.65147.5051-2.68303" fill="#fff"/></svg>